<mxfile host="app.diagrams.net" agent="Mozilla/5.0 (X11; Linux x86_64) AppleWebKit/537.36 (KHTML, like Gecko) Chrome/128.0.0.0 Safari/537.36" version="26.0.6">
  <diagram name="Page-1" id="2vE6dni7qVpCWZpP-CNm">
    <mxGraphModel dx="983" dy="1268" grid="1" gridSize="10" guides="1" tooltips="1" connect="1" arrows="1" fold="1" page="1" pageScale="1" pageWidth="850" pageHeight="1100" math="0" shadow="0">
      <root>
        <mxCell id="0" />
        <mxCell id="1" parent="0" />
        <UserObject label="&lt;b style=&quot;font-weight:normal;&quot; id=&quot;docs-internal-guid-ff2c5e07-7fff-3fae-fed4-b0fa37caed6b&quot;&gt;&lt;span style=&quot;font-size:20pt;font-family:Arial,sans-serif;color:#000000;background-color:transparent;font-weight:400;font-style:normal;font-variant:normal;text-decoration:none;vertical-align:baseline;white-space:pre;white-space:pre-wrap;&quot;&gt;&lt;span style=&quot;border:none;display:inline-block;overflow:hidden;width:624px;height:432px;&quot;&gt;&lt;img src=&quot;https://lh7-rt.googleusercontent.com/docsz/AD_4nXd6iwCGetaFN00emJRvhzG8WmA_Y3vEveyXiAYYBNjk4vUl1OXIgBGd_od5nMTBzg6CVQFR43BRpWswvvDkyARfb-LE6e-OWbQdNa2YtGMkcWp1KjTEYvVhynCBW6VwtiN78eRRKA?key=UzfVxNH8I7wCxe0FnKorOi_b&quot; width=&quot;624&quot; height=&quot;432&quot; style=&quot;margin-left:0px;margin-top:0px;&quot;&gt;&lt;/span&gt;&lt;/span&gt;&lt;/b&gt;" link="&lt;b style=&quot;font-weight:normal;&quot; id=&quot;docs-internal-guid-ff2c5e07-7fff-3fae-fed4-b0fa37caed6b&quot;&gt;&lt;span style=&quot;font-size:20pt;font-family:Arial,sans-serif;color:#000000;background-color:transparent;font-weight:400;font-style:normal;font-variant:normal;text-decoration:none;vertical-align:baseline;white-space:pre;white-space:pre-wrap;&quot;&gt;&lt;span style=&quot;border:none;display:inline-block;overflow:hidden;width:624px;height:432px;&quot;&gt;&lt;img src=&quot;https://lh7-rt.googleusercontent.com/docsz/AD_4nXd6iwCGetaFN00emJRvhzG8WmA_Y3vEveyXiAYYBNjk4vUl1OXIgBGd_od5nMTBzg6CVQFR43BRpWswvvDkyARfb-LE6e-OWbQdNa2YtGMkcWp1KjTEYvVhynCBW6VwtiN78eRRKA?key=UzfVxNH8I7wCxe0FnKorOi_b&quot; width=&quot;624&quot; height=&quot;432&quot; style=&quot;margin-left:0px;margin-top:0px;&quot;&gt;&lt;/span&gt;&lt;/span&gt;&lt;/b&gt;" id="PGaHsMgPPGA8kvKqBguw-1">
          <mxCell style="text;whiteSpace=wrap;html=1;" vertex="1" parent="1">
            <mxGeometry x="90" y="530" width="560" height="460" as="geometry" />
          </mxCell>
        </UserObject>
      </root>
    </mxGraphModel>
  </diagram>
</mxfile>
